<svg viewBox="0 0 1001 1001" fill="none" xmlns="http://www.w3.org/2000/svg">
<path d="M839.979 404.854C840.827 405.04 841.676 405.225 842.55 405.417C845.337 406.027 848.121 406.644 850.906 407.262C852.874 407.695 854.841 408.127 856.809 408.56C860.935 409.467 865.06 410.378 869.185 411.291C874.396 412.444 879.608 413.591 884.821 414.737C894.66 416.899 904.495 419.078 914.324 421.283C919.01 422.335 923.699 423.373 928.393 424.39C931.297 425.023 934.195 425.679 937.094 426.332C938.552 426.639 938.552 426.639 940.04 426.952C946.859 428.528 950.068 431.102 954 437C955.51 447.296 952.411 457.688 950.117 467.645C949.706 469.475 949.295 471.305 948.886 473.136C947.79 478.023 946.678 482.905 945.564 487.788C944.411 492.849 943.272 497.913 942.131 502.977C940.751 509.102 939.37 515.226 937.983 521.349C935.332 533.051 932.717 544.76 930.161 556.483C929.668 558.743 929.174 561.004 928.68 563.264C928.364 564.706 928.048 566.148 927.733 567.591C927.581 568.284 927.43 568.977 927.273 569.691C926.534 573.071 925.799 576.452 925.069 579.834C924.272 583.523 923.463 587.209 922.652 590.895C922.425 591.961 922.198 593.028 921.964 594.126C920.525 600.604 919.411 605.216 913.875 609.313C906.36 613.201 897.524 610.518 889.716 608.753C888.624 608.514 887.532 608.275 886.407 608.028C882.818 607.241 879.233 606.439 875.648 605.637C873.145 605.083 870.641 604.529 868.137 603.977C862.899 602.818 857.662 601.654 852.427 600.484C846.389 599.134 840.349 597.797 834.307 596.466C828.473 595.18 822.641 593.886 816.81 592.589C814.338 592.04 811.865 591.493 809.392 590.947C805.935 590.183 802.48 589.411 799.025 588.636C798.008 588.413 796.99 588.19 795.942 587.96C790.683 586.769 785.782 585.534 781 583C780.67 582.01 780.34 581.02 780 580C781.305 580.035 782.609 580.07 783.953 580.105C792.863 580.268 801.025 580.397 809.59 577.559C813.421 576.671 816.214 577.709 819.84 579.051C823.547 580.164 826.697 580.23 830.562 580.188C832.483 580.178 832.483 580.178 834.441 580.168C837.852 580.097 837.852 580.097 840.555 579.484C844.657 578.672 848.778 579.04 852.941 579.16C855.947 579.003 857.53 578.668 860 577C861.559 573.881 861.361 571.427 861 568C859.763 567.258 859.763 567.258 858.5 566.5C857.263 565.758 857.263 565.758 856 565C855.594 561.214 855.797 558.609 857 555C858.258 554.938 859.516 554.876 860.812 554.813C863.995 554.401 864.745 554.262 867.062 551.875C868.437 548.379 868.437 548.379 867 542C860.73 540.68 854.46 539.36 848 538C848.75 526.25 848.75 526.25 851 524C851.639 524.454 852.279 524.908 852.938 525.375C858.964 528.573 865.325 529.907 872 528C873.682 526.386 873.682 526.386 874 524C873.664 519.486 873.664 519.486 871 516C868.549 515.289 866.179 514.703 863.688 514.188C863.023 514.028 862.358 513.869 861.674 513.705C858.134 512.966 856.321 512.846 853.02 514.426C852.353 514.945 851.687 515.465 851 516C850.784 507.819 851.629 499.814 852.5 491.688C852.784 489.004 853.064 486.321 853.344 483.637C853.469 482.458 853.595 481.28 853.725 480.065C854.06 476.849 854.06 476.849 854 473C866.216 475.333 878.377 477.835 890.504 480.594C891.508 480.821 892.512 481.049 893.546 481.283C898.642 482.438 903.734 483.603 908.823 484.785C910.731 485.219 912.639 485.653 914.547 486.086C915.426 486.294 916.305 486.502 917.211 486.716C921.444 487.667 924.749 488.38 929 487C930.002 482.517 930.999 478.033 931.991 473.548C932.329 472.023 932.668 470.498 933.009 468.974C933.5 466.78 933.985 464.586 934.469 462.391C934.622 461.711 934.775 461.032 934.933 460.332C935.64 457.099 936 454.336 936 451C923.717 447.848 911.375 445.016 898.996 442.27C897.018 441.829 895.04 441.389 893.062 440.949C888.95 440.034 884.838 439.121 880.725 438.208C875.466 437.041 870.208 435.87 864.95 434.698C860.879 433.791 856.808 432.887 852.738 431.983C850.798 431.552 848.858 431.12 846.919 430.687C844.214 430.084 841.508 429.485 838.802 428.886C838.011 428.709 837.22 428.532 836.405 428.349C831.949 427.368 827.525 426.586 823 426C822.758 427.163 822.515 428.325 822.266 429.523C819.928 440.702 817.503 451.858 815 463C809.72 463 804.44 463 799 463C800.544 453.052 802.521 443.224 804.667 433.389C805.057 431.581 805.439 429.771 805.812 427.959C806.359 425.305 806.934 422.658 807.516 420.012C807.675 419.211 807.835 418.409 807.999 417.584C809.302 411.857 811.631 407.965 816 404C823.254 400.131 832.347 403.15 839.979 404.854ZM857 491C855.475 494.05 855.764 496.642 856 500C858.298 503.217 861.078 503.829 864.812 504.75C865.83 505.013 866.847 505.276 867.895 505.547C871.885 506.129 875.364 505.982 878.875 503.875C880.701 500.832 880.425 498.458 880 495C876.956 490.986 873.895 490.099 869.062 489.063C867.857 488.785 866.652 488.508 865.41 488.223C861.482 487.966 860.039 488.577 857 491ZM891.688 497.563C889.358 500.928 889.427 502.99 890 507C892.145 510.45 894.519 511.311 898.312 512.25C905.633 513.735 905.633 513.735 912.438 511.438C914.58 508.095 914.496 505.895 914 502C911.665 498.761 908.905 498.203 905.125 497.313C904.096 497.061 903.068 496.81 902.008 496.551C896.567 495.502 896.567 495.502 891.688 497.563ZM885 523C883.818 526.989 883.531 529.041 885.375 532.813C889.03 535.859 892.35 536.435 897 537C897.733 537.095 898.467 537.191 899.223 537.289C902.912 537.551 904.658 537.275 907.562 534.938C909.457 531.066 909.286 529.086 908 525C903.581 520.996 896.947 520.327 891.188 519.688C888.224 520.111 887.016 520.768 885 523ZM880 545C877.641 548.538 876.922 551.945 876.02 556.027C875.842 556.813 875.665 557.598 875.483 558.407C875.111 560.067 874.742 561.727 874.376 563.387C873.815 565.927 873.237 568.462 872.658 570.998C872.298 572.612 871.94 574.226 871.582 575.84C871.408 576.597 871.234 577.355 871.055 578.135C870.261 581.803 869.912 584.415 871 588C874.413 588.869 877.831 589.718 881.25 590.563C882.218 590.809 883.186 591.056 884.184 591.311C885.118 591.539 886.053 591.768 887.016 592.004C887.874 592.219 888.733 592.433 889.618 592.655C892.168 593.024 893.643 593.048 896 592C897.036 590.394 897.036 590.394 897.551 588.297C897.789 587.483 898.027 586.669 898.272 585.83C899.688 580.326 900.97 574.801 902.188 569.25C902.46 568.045 902.733 566.839 903.014 565.598C903.271 564.436 903.528 563.275 903.793 562.078C904.025 561.03 904.258 559.983 904.497 558.903C904.966 556.196 905.097 553.739 905 551C897.24 547.741 888.467 545 880 545Z" fill="white"/>
<path d="M291.438 426.688C292.571 426.671 293.704 426.654 294.871 426.637C298.416 427.048 299.598 427.388 302 430C302.209 432.724 302.166 434.966 301.904 437.655C301.844 438.445 301.783 439.234 301.72 440.048C301.506 442.702 301.256 445.35 301 448C300.915 448.918 300.83 449.836 300.742 450.782C300.063 458.033 299.302 465.274 298.531 472.516C298.288 474.83 298.045 477.144 297.803 479.458C297.298 484.268 296.79 489.079 296.28 493.889C295.627 500.049 294.979 506.209 294.333 512.369C293.834 517.13 293.332 521.891 292.83 526.653C292.59 528.925 292.351 531.198 292.112 533.47C291.779 536.636 291.444 539.801 291.108 542.966C290.961 544.364 290.961 544.364 290.812 545.79C290.338 550.223 289.797 554.61 289 559C292.3 559 295.6 559 299 559C298.505 565.435 298.505 565.435 298 572C290.305 574.513 279.658 576.345 272.231 572.605C271.495 572.076 270.758 571.546 270 571C269.01 570.34 268.02 569.68 267 569C263.944 569.897 263.944 569.897 260.5 571.375C249.572 575.41 237.265 576.087 226.25 571.938C216.876 567.244 212.479 560.758 209 551C203.963 535.102 206.512 516.232 213.813 501.562C220.758 488.243 228.369 479.717 243 475C251.728 472.754 266.518 470.759 275 475C276.875 464.766 277.912 454.517 278.856 444.162C278.975 442.924 279.095 441.686 279.219 440.41C279.373 438.742 279.373 438.742 279.529 437.039C279.995 434.035 280.616 431.703 282 429C285.546 426.636 287.233 426.702 291.438 426.688ZM237.824 500.637C228.886 512.216 228.049 526.931 229 541C229.984 546.298 231.47 550.765 236 554C243.755 557.607 250.467 556.392 258.313 553.688C262.336 552.214 265.818 550.902 269 548C269.76 545.877 269.76 545.877 269.913 543.456C270.063 542.079 270.063 542.079 270.216 540.674C270.349 539.188 270.349 539.188 270.484 537.672C270.59 536.65 270.695 535.627 270.804 534.574C271.136 531.301 271.443 528.026 271.75 524.75C271.971 522.558 272.194 520.367 272.418 518.176C273.699 506.113 273.699 506.113 274 494C261.377 489.065 247.157 490.607 237.824 500.637Z" fill="white"/>
<path d="M823.18 474.758C826.206 475.313 826.206 475.313 829 473C831.996 472.664 831.996 472.664 835.438 472.625C837.137 472.582 837.137 472.582 838.871 472.539C842.727 473.107 843.682 473.911 846 477C846.229 480.105 846.229 480.105 845.852 483.742C845.79 484.401 845.727 485.059 845.663 485.737C845.462 487.827 845.231 489.913 845 492C844.814 493.943 844.814 493.943 844.623 495.926C844.23 499.994 843.805 504.057 843.371 508.121C843.215 509.602 843.06 511.083 842.905 512.563C842.501 516.405 842.094 520.247 841.687 524.089C841.269 528.031 840.854 531.973 840.44 535.916C839.63 543.611 838.816 551.306 838 559C841.3 559 844.6 559 848 559C847.505 564.94 847.505 564.94 847 571C839.417 574.138 832.184 574.979 824 574C818.319 571.638 818.319 571.638 817 569C816.443 569.193 815.886 569.387 815.313 569.586C814.549 569.846 813.786 570.107 813 570.375C812.258 570.63 811.515 570.885 810.75 571.148C799.306 574.692 785.297 576.814 774.106 571.324C765.02 565.61 759.049 558.066 756.508 547.566C753.768 528.323 756.058 509.413 767 493C771.824 486.667 776.877 481.613 784 478C785.052 477.443 786.104 476.886 787.188 476.312C798.734 471.662 811.278 472.479 823.18 474.758ZM787.75 499.125C786.796 500.389 785.879 501.683 785 503C784.321 503.994 784.321 503.994 783.629 505.008C777.597 515.281 775.103 531.412 778 543C779.829 548.298 782.149 551.968 787 555C794.214 557.985 802.064 555.48 809 553C809.774 552.791 810.547 552.582 811.344 552.367C813.777 551.53 815.134 550.781 817 549C817.793 546.512 817.793 546.512 818.082 543.555C818.233 542.39 818.384 541.225 818.54 540.025C818.694 538.683 818.848 537.342 819 536C819.181 534.485 819.362 532.97 819.543 531.456C820.027 527.326 820.477 523.193 820.915 519.059C821.19 516.476 821.477 513.894 821.764 511.312C821.941 509.656 822.117 508 822.293 506.344C822.379 505.579 822.466 504.815 822.555 504.027C822.954 500.132 823.043 496.792 822 493C810.184 490.74 796.616 489.703 787.75 499.125Z" fill="#777777"/>
<path d="M619.418 474.402C621 476 621 476 621 478C621.519 477.723 622.039 477.446 622.574 477.16C623.272 476.798 623.969 476.436 624.687 476.063C625.372 475.703 626.056 475.343 626.762 474.973C633.345 472.112 640.656 472.779 647.687 472.75C648.917 472.729 650.146 472.709 651.412 472.688C659.904 472.651 668.424 472.984 675.437 478.313C681.579 484.754 682.191 491.152 682.116 499.637C681.922 505.264 681.319 510.83 680.687 516.422C680.554 517.648 680.421 518.874 680.284 520.137C679.862 524.009 679.431 527.879 679 531.75C678.71 534.393 678.421 537.036 678.133 539.68C677.429 546.121 676.716 552.56 676 559C679.3 559 682.6 559 686 559C685.67 563.29 685.34 567.58 685 572C676.182 574.075 666.488 576.085 658 572C655.414 569.903 654.152 568.264 653.747 564.903C653.708 553.641 655.228 542.486 656.5 531.313C656.86 528.134 657.218 524.955 657.57 521.775C657.788 519.809 658.01 517.843 658.238 515.878C659.966 505.401 659.966 505.401 656.75 496C649.069 490.414 636.482 492.621 627.562 494C625.708 494.33 623.853 494.663 622 495C621.929 495.852 621.929 495.852 621.856 496.722C620.656 510.992 619.325 525.244 617.823 539.486C617.494 542.62 617.175 545.754 616.855 548.889C616.644 550.906 616.432 552.924 616.219 554.941C616.126 555.866 616.033 556.791 615.938 557.744C615.436 562.392 614.83 566.649 613 571C609.924 573.383 606.799 573.298 603 573.312C601.969 573.329 600.937 573.346 599.875 573.363C596.474 572.934 595.151 572.704 593 570C592.575 561.961 593.617 554.025 594.496 546.043C594.651 544.608 594.805 543.173 594.96 541.738C595.282 538.748 595.608 535.759 595.936 532.77C596.356 528.943 596.769 525.115 597.18 521.287C597.498 518.331 597.818 515.376 598.14 512.421C598.293 511.009 598.446 509.597 598.598 508.186C598.81 506.216 599.027 504.247 599.244 502.278C599.427 500.6 599.427 500.6 599.614 498.888C600 496 600 496 601 492C597.7 492 594.4 492 591 492C590.644 483.093 590.644 483.093 591.937 479.125C598.355 472.513 611.233 469.655 619.418 474.402Z" fill="#777777"/>
<path d="M542.813 472.688C543.701 472.693 544.59 472.699 545.505 472.705C556.809 472.914 565.356 475.83 573.754 483.629C583.221 493.855 584.583 507.405 584.254 520.801C583.523 536.544 579.142 549.758 568.688 561.625C556.411 572.474 543.287 575.026 527.294 574.221C517.1 573.239 507.571 569.666 500.531 562.012C492.207 551.076 490.723 538.386 492.223 525.016C494.108 511.316 498.161 498.853 507 488C507.522 487.353 508.044 486.706 508.582 486.039C517.305 476.319 530.15 472.604 542.813 472.688ZM522 501C515.435 510.277 513.739 520.05 513.563 531.188C513.54 532.031 513.518 532.874 513.495 533.743C513.516 539.635 514.698 544.076 518 549C523.155 554.022 530.072 554.609 537 555C544.831 554.486 549.993 551.936 555.625 546.438C563.288 536.698 563.915 522.821 563 511C561.844 505.628 560.287 500.705 556.125 496.938C545.128 490.119 531.041 491.548 522 501Z" fill="#777777"/>
<path d="M382.688 478.625C392.018 485.351 396.098 494.101 398.461 505.156C401.185 523.122 397.758 543.188 387 558C379.959 566.841 370.108 572.061 359 574C346.092 575.229 332.524 574.858 321.563 567.188C320.345 566.16 319.155 565.097 318 564C317.447 563.475 316.894 562.951 316.324 562.41C307.755 553.373 306.51 541.649 306.731 529.742C307.408 513.524 312.938 497.084 324 485C339.894 471.484 364.398 467.651 382.688 478.625ZM336 502C329.113 511.825 326.674 526.594 328.332 538.355C329.834 544.084 331.217 547.663 336 551.25C343.157 555.425 353.664 555.287 361.688 553.352C367.607 550.646 371.672 546.084 374.223 540.16C378.28 528.628 379.991 515.815 376 504C373.286 498.862 369.792 495.18 364.106 493.41C353.595 491.363 343.089 493.688 336 502Z" fill="white"/>
<path d="M183.512 478.473C192.347 484.65 196.785 493.647 199 504C199.426 508.239 199.477 512.43 199.437 516.688C199.431 517.832 199.424 518.977 199.417 520.156C199.25 528.997 198.23 536.702 195 545C194.649 545.914 194.299 546.828 193.937 547.77C189.367 558.102 181.212 566.729 170.676 570.926C156.866 575.742 140.43 576.184 127 570C118.033 565.179 112.554 558.995 109.367 549.34C107.875 544.131 107.499 539.274 107.562 533.875C107.569 532.968 107.575 532.061 107.581 531.126C107.775 522.647 109.377 515.032 112 507C112.289 506.069 112.577 505.139 112.875 504.18C117.416 491.246 126.691 481.885 138.785 475.824C152.866 470.584 170.457 470.819 183.512 478.473ZM138.062 500.688C129.848 511.359 127.851 524.793 129 538C129.873 542.839 131.135 546.622 134.875 549.938C142.049 554.673 149.103 555.599 157.562 554.438C164.066 553.055 168.613 550.294 172.531 544.887C179.053 533.909 180.516 519.868 177.793 507.477C176.141 502.318 173.771 498.339 169.437 495.063C159.069 490.543 145.922 492.274 138.062 500.688Z" fill="white"/>
<path d="M41.916 433.855C43.3015 433.85 43.3015 433.85 44.715 433.844C47.7788 433.835 50.8425 433.833 53.9062 433.832C56.0285 433.829 58.1508 433.825 60.2731 433.822C64.7252 433.816 69.1773 433.814 73.6294 433.815C79.3463 433.815 85.0631 433.801 90.78 433.784C95.1636 433.773 99.5472 433.771 103.931 433.771C106.039 433.77 108.148 433.766 110.256 433.758C113.199 433.748 116.141 433.751 119.084 433.757C119.962 433.751 120.84 433.746 121.745 433.74C127.772 433.772 127.772 433.772 130 436C130.301 438.898 130.301 438.898 130.312 442.375C130.329 443.517 130.346 444.659 130.363 445.836C129.949 449.442 129.675 450.575 127 453C124.005 453.355 121.384 453.466 118.395 453.391C117.555 453.385 116.716 453.379 115.851 453.373C113.171 453.351 110.492 453.301 107.812 453.25C105.995 453.23 104.178 453.212 102.361 453.195C97.907 453.151 93.4537 453.082 89 453C88.9535 453.754 88.907 454.509 88.8591 455.286C88.1113 466.582 86.9519 477.827 85.7852 489.086C85.5671 491.199 85.3492 493.312 85.1312 495.425C84.6765 499.828 84.2198 504.23 83.762 508.632C83.1771 514.26 82.5996 519.889 82.024 525.518C81.5775 529.871 81.1258 534.224 80.6726 538.577C80.4575 540.652 80.2442 542.727 80.0329 544.803C79.7371 547.703 79.434 550.602 79.1292 553.501C79.0444 554.348 78.9597 555.195 78.8723 556.068C77.4018 569.811 77.4018 569.811 74.25 572.484C71.4414 573.128 68.8831 573.264 66 573.25C64.4531 573.258 64.4531 573.258 62.875 573.266C60.0244 573.002 58.3752 572.561 56 571C51.386 561.772 57.1747 540.942 58.25 530.832C58.4706 528.737 58.691 526.642 58.9111 524.547C59.3696 520.191 59.8304 515.835 60.293 511.479C60.8853 505.9 61.4726 500.321 62.0582 494.741C62.5111 490.43 62.9663 486.119 63.4222 481.809C63.6398 479.75 63.8566 477.692 64.0729 475.633C64.3744 472.767 64.679 469.9 64.9844 467.034C65.0727 466.189 65.1611 465.344 65.2521 464.473C65.6679 460.6 66.1415 456.806 67 453C65.3799 453.016 65.3799 453.016 63.7271 453.032C59.7277 453.068 55.7284 453.091 51.729 453.11C49.9966 453.12 48.2641 453.134 46.5317 453.151C44.0446 453.175 41.5576 453.186 39.0703 453.195C38.2932 453.206 37.516 453.216 36.7154 453.227C34.8087 453.227 32.9027 453.122 31 453C29 451 29 451 28.7344 448.574C28.7395 447.622 28.7447 446.669 28.75 445.687C28.7448 444.743 28.7397 443.798 28.7344 442.824C29.0152 439.839 29.656 437.674 31 435C34.3753 433.312 38.2033 433.853 41.916 433.855Z" fill="white"/>
<path d="M487 479C488 480 488 480 488.437 482.437C487.775 487.829 485.7 492.008 482 496C476.984 497.959 471.194 495.597 466.187 494.437C457.338 492.419 448.957 492.103 441 497C440.01 497.33 439.02 497.66 438 498C436.885 499.759 436.885 499.759 436 502C435.598 502.879 435.196 503.758 434.781 504.664C430.584 514.363 428.846 522.675 428.687 533.187C428.67 533.948 428.652 534.709 428.633 535.493C428.641 540.723 429.533 544.367 432 549C438.019 553.63 444.695 553.511 452 553C455.47 552.475 458.908 551.799 462.341 551.067C466.294 550.238 469.965 549.581 474 550C477.98 552.759 478.835 557.528 480 562C480.437 564.875 480.437 564.875 480 567C471.912 574.822 455.499 574.404 445.062 574.5C444.033 574.518 443.005 574.537 441.944 574.555C431.879 574.475 423.084 571.997 415.715 564.914C405.875 553.931 404.219 540.262 405 526C406.771 509.662 412.519 494.49 424.523 482.926C441.214 469.947 468.471 468.791 487 479Z" fill="#777777"/>
<path d="M714.5 445.812C715.19 445.8 715.879 445.788 716.59 445.775C718.395 445.77 720.199 445.878 722 446C724 448 724 448 724.266 450.328C724.223 458.36 723.279 466.078 722 474C722.838 473.989 723.675 473.979 724.538 473.968C727.643 473.934 730.748 473.909 733.853 473.89C735.859 473.875 737.865 473.85 739.871 473.824C741.128 473.818 742.385 473.811 743.68 473.805C744.842 473.794 746.005 473.784 747.203 473.773C750 474 750 474 752 476C752.612 481.084 752.669 486.504 750 491C746.46 493.36 744.989 493.235 740.801 493.195C739.592 493.189 738.384 493.182 737.139 493.176C735.876 493.159 734.613 493.142 733.312 493.125C732.038 493.116 730.764 493.107 729.451 493.098C726.301 493.074 723.15 493.041 720 493C719.95 493.632 719.9 494.263 719.848 494.914C719.696 496.833 719.543 498.753 719.389 500.672C719.211 502.911 719.036 505.151 718.862 507.391C718.411 513.164 717.918 518.927 717.316 524.687C717.211 525.748 717.106 526.809 716.997 527.902C716.796 529.917 716.579 531.93 716.346 533.941C715.753 540.071 715.979 545.484 719 551C722.05 553.034 722.691 553.245 726.125 553.273C726.914 553.294 727.703 553.315 728.516 553.336C730.172 553.362 731.828 553.38 733.484 553.391C739.54 553.569 739.54 553.569 742.019 555.894C744.137 560.441 744.46 565.029 744 570C741.181 573.253 738.124 573.437 734 574C723.227 574.753 711.499 574.433 702.437 567.75C693.14 557.261 694.374 544.188 695 531C695.856 518.534 697.268 506.104 698.592 493.681C698.972 490.076 699.339 486.469 699.706 482.863C700.063 479.369 700.427 475.876 700.793 472.383C700.966 470.724 701.137 469.066 701.307 467.407C701.544 465.101 701.79 462.797 702.038 460.492C702.176 459.186 702.314 457.88 702.456 456.535C702.979 453.137 703.695 450.178 705 447C708.034 445.483 711.175 445.816 714.5 445.812Z" fill="#777777"/>
<path d="M858.381 392.231C859.472 392.469 860.563 392.706 861.687 392.951C865.265 393.733 868.839 394.53 872.414 395.328C874.914 395.88 877.414 396.431 879.914 396.981C885.142 398.134 890.369 399.295 895.594 400.461C901.616 401.806 907.641 403.135 913.668 404.456C919.492 405.733 925.313 407.022 931.134 408.316C933.599 408.863 936.066 409.407 938.533 409.947C941.983 410.705 945.431 411.476 948.877 412.251C949.89 412.47 950.902 412.69 951.945 412.916C958.934 414.508 965.417 416.288 970.5 421.625C973.869 429.204 971.741 437.62 969.956 445.427C969.738 446.419 969.52 447.412 969.295 448.434C968.574 451.704 967.838 454.971 967.102 458.238C966.587 460.56 966.072 462.882 965.559 465.203C964.201 471.335 962.831 477.464 961.457 483.592C960.101 489.655 958.756 495.721 957.41 501.787C955.824 508.932 954.236 516.077 952.635 523.219C950.33 533.506 948.033 543.794 945.821 554.101C944.919 558.305 944.009 562.507 943.098 566.709C942.678 568.659 942.263 570.61 941.853 572.562C941.291 575.232 940.714 577.898 940.134 580.563C939.976 581.336 939.818 582.11 939.656 582.906C938.372 588.694 936.375 593.262 931.438 596.875C929 598 929 598 926 598C926.671 590.144 928.301 582.611 930.051 574.934C930.367 573.532 930.682 572.13 930.997 570.728C931.673 567.723 932.351 564.72 933.032 561.716C934.11 556.959 935.179 552.2 936.246 547.44C939.28 533.91 942.325 520.383 945.383 506.859C947.075 499.378 948.758 491.895 950.432 484.41C951.488 479.686 952.556 474.966 953.63 470.246C954.299 467.3 954.958 464.351 955.613 461.401C955.917 460.044 956.225 458.688 956.537 457.332C960.027 443.7 960.027 443.7 957.125 430.5C951.429 424.896 940.602 424.132 933.078 422.472C932.036 422.239 930.994 422.006 929.92 421.766C926.507 421.005 923.094 420.248 919.68 419.492C917.292 418.961 914.904 418.43 912.516 417.898C907.525 416.788 902.534 415.68 897.542 414.575C891.155 413.16 884.769 411.738 878.383 410.314C873.458 409.217 868.532 408.123 863.605 407.03C861.25 406.508 858.896 405.984 856.541 405.459C853.25 404.725 849.957 403.997 846.664 403.269C845.698 403.053 844.733 402.837 843.738 402.614C838.499 401.463 833.334 400.573 828 400C829.353 395.573 831.233 393.637 835 391C841.755 387.622 851.43 390.663 858.381 392.231Z" fill="white"/>
</svg>
